<svg xmlns="http://www.w3.org/2000/svg" viewBox="0 0 96 96" role="img" aria-labelledby="title">
  <title>Starknet</title>
  <defs>
    <radialGradient id="starknetGradient" cx="30%" cy="30%" r="75%">
      <stop offset="0%" stop-color="#7dd3fc"/>
      <stop offset="50%" stop-color="#38bdf8"/>
      <stop offset="100%" stop-color="#0ea5e9"/>
    </radialGradient>
  </defs>
  <rect width="96" height="96" rx="18" fill="#0f172a"/>
  <circle cx="48" cy="48" r="32" fill="url(#starknetGradient)"/>
  <path d="M49.7 27c-10.4 0-19 8.6-19 19s8.6 19 19 19c4.7 0 9-1.7 12.4-4.6l-6.1-6.1a9.7 9.7 0 0 1-6.3 2.2c-5.4 0-9.8-4.4-9.8-9.8s4.4-9.8 9.8-9.8c3.9 0 7.3 2.2 9 5.5l6.5-5.4C61.8 31 56.2 27 49.7 27Z" fill="#0f172a"/>
</svg>
